<svg width="672" height="296" viewBox="0 0 672 296" fill="none" xmlns="http://www.w3.org/2000/svg">
<g clip-path="url(#clip0_302_146)">
<path d="M199.922 243.717C197.612 261.834 189.116 278.41 180.054 294.377C179.754 294.921 179.446 295.456 179.13 296H84.9361C83.0311 295.505 81.1506 294.961 79.2781 294.377C68.6392 291.135 58.5953 286.19 49.5366 279.733C14.8828 254.743 1.54804 207.523 7.57107 165.212C11.3162 138.925 22.8429 112.086 45.2888 97.9278C57.1401 90.4391 72.3633 88.0051 86.006 90.788C86.363 90.8529 86.7197 90.9341 87.0842 91.0071C98.8219 93.652 109.279 100.224 115.229 110.812C125.929 129.838 119.558 153.407 114.297 174.583C109.052 195.759 106.207 221.105 121.43 236.724C116.404 221.917 121.365 204.254 133.37 194.242C142.441 186.688 155.071 183.857 166.589 186.201C167.692 186.437 168.778 186.704 169.848 187.029C172.434 187.787 174.927 188.832 177.281 190.145C195.236 200.181 202.508 223.296 199.922 243.717Z" fill="#EAEAEA"/>
<path d="M144.071 294.377C146.681 294.986 149.299 295.521 151.933 296H137.691C135.826 295.497 133.97 294.961 132.13 294.377C128.085 293.112 124.102 291.659 120.182 290.02C104.456 283.416 89.9699 273.502 79.0104 260.309C73.6505 253.918 69.2736 246.761 66.0244 239.076C62.501 230.391 60.2619 221.237 59.3776 211.905C57.3914 192.757 59.4179 173.082 63.2034 154.275C67.1101 134.783 73.4162 115.851 81.9774 97.9116C83.0069 95.7616 84.0715 93.625 85.1712 91.502C85.2468 91.3272 85.3614 91.1721 85.506 91.0483C85.6507 90.9246 85.8217 90.8356 86.006 90.788C86.3802 90.7154 86.7678 90.7942 87.0841 91.0071C87.4638 91.2251 87.7452 91.5807 87.8705 92.0004C87.9957 92.4201 87.9551 92.872 87.757 93.2626C78.9299 110.492 72.2387 128.736 67.832 147.59C63.5197 165.983 61.0716 185.228 61.9064 204.14C62.7008 221.811 67.3135 239.19 77.7783 253.64C87.3354 266.832 100.532 277.234 115.132 284.317C124.372 288.742 134.079 292.116 144.071 294.377Z" fill="white"/>
<path d="M175.328 296H171.129C170.659 295.464 170.205 294.921 169.759 294.377C160.195 282.746 153.715 268.888 150.92 254.086C147.526 235.614 150.166 216.539 158.451 199.686C160.762 194.96 163.485 190.448 166.589 186.201C167.692 186.437 168.778 186.705 169.848 187.029C161.684 197.855 156.193 210.46 153.822 223.815C151.707 236.329 152.411 249.158 155.88 261.365C159.35 273.573 165.498 284.851 173.877 294.377C174.347 294.921 174.833 295.465 175.328 296Z" fill="white"/>
<path d="M553.593 282.202C554.203 286.983 556.445 291.358 558.837 295.572C558.916 295.715 558.997 295.857 559.08 296H583.94C584.443 295.869 584.939 295.726 585.433 295.572C588.241 294.716 590.892 293.411 593.282 291.707C602.428 285.112 605.947 272.649 604.358 261.483C603.369 254.545 600.327 247.462 594.404 243.725C591.187 241.764 587.349 241.091 583.657 241.841C583.563 241.858 583.469 241.879 583.373 241.899C581.836 242.196 580.38 242.815 579.1 243.716C577.82 244.617 576.745 245.779 575.945 247.125C573.121 252.147 574.803 258.367 576.191 263.956C577.575 269.545 578.326 276.234 574.308 280.356C574.897 278.632 575.017 276.782 574.655 274.997C574.293 273.212 573.462 271.555 572.249 270.197C571.035 268.839 569.482 267.83 567.75 267.272C566.017 266.714 564.167 266.628 562.39 267.022C562.099 267.084 561.812 267.155 561.53 267.241C560.848 267.441 560.189 267.716 559.568 268.063C554.83 270.712 552.911 276.812 553.593 282.202Z" fill="#EAEAEA"/>
<path d="M568.333 295.572C567.644 295.732 566.953 295.874 566.258 296H570.017C570.509 295.867 570.999 295.726 571.484 295.572C572.552 295.238 573.603 294.854 574.638 294.422C578.835 292.716 582.561 290.027 585.504 286.581C586.918 284.894 588.073 283.005 588.931 280.977C589.861 278.685 590.452 276.269 590.685 273.806C591.112 268.714 590.771 263.587 589.675 258.596C588.644 253.452 586.98 248.455 584.721 243.721C584.449 243.153 584.168 242.59 583.878 242.029C583.858 241.983 583.828 241.942 583.789 241.91C583.751 241.877 583.706 241.853 583.657 241.841C583.559 241.822 583.456 241.842 583.373 241.899C583.273 241.956 583.198 242.05 583.165 242.161C583.132 242.272 583.143 242.391 583.195 242.494C585.525 247.041 587.291 251.856 588.454 256.832C589.652 261.712 590.178 266.734 590.018 271.757C589.932 276.428 588.475 280.971 585.829 284.82C583.255 288.287 579.87 291.067 575.971 292.917C573.532 294.084 570.97 294.975 568.333 295.572Z" fill="white"/>
<path d="M560.084 296H561.192C561.316 295.859 561.436 295.715 561.553 295.572C564.078 292.502 565.788 288.845 566.525 284.938C567.421 280.063 566.724 275.029 564.538 270.581C563.928 269.334 563.209 268.143 562.39 267.022C562.099 267.084 561.812 267.155 561.53 267.241C563.685 270.098 565.134 273.424 565.759 276.949C566.318 280.252 566.132 283.637 565.216 286.859C564.301 290.081 562.678 293.058 560.467 295.572C560.343 295.715 560.214 295.859 560.084 296Z" fill="white"/>
<path d="M329.523 172.416H251.719L250.895 148.473C250.859 147.435 251.048 146.402 251.45 145.444C251.851 144.487 252.455 143.627 253.22 142.926C253.986 142.224 254.893 141.697 255.882 141.38C256.87 141.063 257.915 140.965 258.945 141.091L304.221 146.64H304.227C310.939 146.658 317.371 149.339 322.112 154.094C326.854 158.849 329.519 165.292 329.523 172.011V172.416Z" fill="#08D9D6"/>
<path d="M294.846 87.4859H240.581C239.86 87.4857 239.145 87.6278 238.478 87.9041C237.812 88.1805 237.206 88.5856 236.695 89.0964C236.185 89.6071 235.78 90.2135 235.504 90.8809C235.228 91.5483 235.086 92.2636 235.086 92.9859V147.299C235.086 148.021 235.228 148.736 235.504 149.404C235.78 150.071 236.185 150.677 236.695 151.188C237.206 151.699 237.812 152.104 238.478 152.38C239.145 152.657 239.86 152.799 240.581 152.799H294.846C295.567 152.799 296.282 152.657 296.949 152.38C297.616 152.104 298.222 151.699 298.732 151.188C299.242 150.677 299.647 150.071 299.923 149.404C300.199 148.736 300.341 148.021 300.341 147.299V92.9859C300.341 92.2636 300.199 91.5483 299.923 90.8809C299.647 90.2135 299.242 89.6071 298.732 89.0963C298.222 88.5856 297.616 88.1805 296.949 87.9041C296.282 87.6278 295.567 87.4857 294.846 87.4859Z" fill="#CCCCCC"/>
<path d="M282.625 128.099L257.004 133.093C255.484 133.387 253.91 133.066 252.626 132.2C251.343 131.334 250.455 129.994 250.157 128.474L248.188 118.351C247.894 116.83 248.214 115.254 249.079 113.97C249.945 112.685 251.284 111.796 252.803 111.498L278.423 106.504C279.943 106.21 281.517 106.531 282.801 107.397C284.085 108.263 284.973 109.603 285.27 111.123L287.24 121.246C287.534 122.767 287.213 124.343 286.348 125.627C285.483 126.912 284.144 127.801 282.625 128.099Z" fill="#FF2E63"/>
<path d="M277.499 116.14L257.946 119.951C257.589 120.021 257.218 119.946 256.916 119.742C256.614 119.538 256.405 119.222 256.335 118.864C256.266 118.506 256.341 118.135 256.544 117.833C256.748 117.531 257.063 117.322 257.421 117.252L276.974 113.441C277.331 113.371 277.702 113.447 278.004 113.65C278.306 113.854 278.515 114.17 278.585 114.528C278.654 114.886 278.579 115.257 278.375 115.559C278.172 115.861 277.856 116.071 277.499 116.14Z" fill="white"/>
<path d="M273.698 121.784L263.585 123.755C263.227 123.825 262.857 123.749 262.554 123.546C262.252 123.342 262.043 123.026 261.974 122.668C261.904 122.31 261.979 121.939 262.183 121.637C262.387 121.335 262.702 121.126 263.06 121.056L273.173 119.085C273.35 119.05 273.532 119.051 273.709 119.087C273.886 119.123 274.054 119.193 274.203 119.294C274.353 119.395 274.481 119.524 274.581 119.675C274.681 119.825 274.75 119.994 274.784 120.171C274.819 120.349 274.818 120.531 274.782 120.708C274.746 120.885 274.676 121.053 274.575 121.203C274.474 121.352 274.345 121.481 274.194 121.581C274.044 121.68 273.875 121.749 273.698 121.784Z" fill="white"/>
<path d="M300.341 92.9859V100.205H235.086V92.9859C235.086 92.2636 235.228 91.5483 235.504 90.8809C235.78 90.2135 236.185 89.6071 236.695 89.0964C237.206 88.5856 237.812 88.1805 238.478 87.9041C239.145 87.6278 239.86 87.4857 240.581 87.4859H294.846C295.567 87.4857 296.282 87.6278 296.949 87.9041C297.616 88.1805 298.221 88.5856 298.732 89.0964C299.242 89.6071 299.647 90.2135 299.923 90.8809C300.199 91.5483 300.341 92.2636 300.341 92.9859Z" fill="#B3B3B3"/>
<path d="M430.648 102.465C430.271 101.248 429.632 100.128 428.776 99.1851C427.921 98.2418 426.869 97.4978 425.694 97.0054C424.52 96.5131 423.252 96.2844 421.98 96.3355C420.708 96.3866 419.463 96.7163 418.332 97.3012L343.677 70.4924L340.389 89.1591L414.806 109.642C415.914 111.478 417.656 112.844 419.703 113.481C421.75 114.118 423.959 113.981 425.912 113.096C427.864 112.212 429.425 110.641 430.298 108.681C431.171 106.722 431.295 104.51 430.648 102.465Z" fill="#FFB8B8"/>
<path opacity="0.2" d="M430.648 102.465C430.271 101.248 429.632 100.128 428.776 99.1851C427.921 98.2418 426.869 97.4978 425.694 97.0054C424.52 96.5131 423.252 96.2844 421.98 96.3355C420.708 96.3866 419.463 96.7163 418.332 97.3012L343.677 70.4924L340.389 89.1591L414.806 109.642C415.914 111.478 417.656 112.844 419.703 113.481C421.75 114.118 423.959 113.981 425.912 113.096C427.864 112.212 429.425 110.641 430.298 108.681C431.171 106.722 431.295 104.51 430.648 102.465Z" fill="black"/>
<path d="M356.928 73.8938L349.878 92.3276C349.678 92.8521 349.366 93.3272 348.966 93.7205C348.565 94.1137 348.085 94.416 347.557 94.6066C347.029 94.7972 346.466 94.8718 345.907 94.8251C345.348 94.7785 344.806 94.6118 344.317 94.3364L327.183 84.6845C324.508 83.6419 322.355 81.5802 321.197 78.9514C320.038 76.3227 319.968 73.3413 321.002 70.661C322.036 67.9806 324.09 65.8201 326.713 64.6529C329.336 63.4857 332.315 63.4072 334.995 64.4346L354.128 68.6817C354.676 68.8034 355.191 69.0419 355.638 69.3809C356.085 69.7199 356.454 70.1514 356.72 70.646C356.986 71.1407 357.142 71.6868 357.178 72.2473C357.214 72.8077 357.128 73.3693 356.928 73.8938Z" fill="#FF2E63"/>
<path d="M436.524 119.534L409.774 131.704L413.286 144.938C420.068 170.493 421.868 197.117 418.587 223.353L438.145 227.442L454.358 186.064L448.683 139.006L436.524 119.534Z" fill="#08D9D6"/>
<path d="M489.011 180.79C471.436 180.79 457.113 193.578 456.417 209.592H521.606C520.91 193.578 506.587 180.79 489.011 180.79Z" fill="#3F3D56"/>
<path d="M475.33 183.55C474.415 111.261 433.282 117.911 433.282 117.911C433.282 117.911 434.051 140.412 434.421 141.112C460.632 190.749 417.373 248.942 362.309 238.236C361.27 238.035 360.273 237.83 359.316 237.622C352.339 236.164 346.179 232.101 342.089 226.259C337.998 220.416 336.285 213.234 337.297 206.172C342.722 162.575 315.742 163.346 315.742 163.346H276.293L255.806 144.891C255.083 144.24 254.211 143.776 253.267 143.54C252.323 143.303 251.336 143.302 250.392 143.536C249.447 143.769 248.574 144.231 247.85 144.881C247.125 145.53 246.57 146.348 246.233 147.261L243.598 154.421C243.598 154.421 204.688 158.478 207.931 196.611H219.96C219.931 197.694 219.974 198.779 220.09 199.856L309.866 199.126C315.129 199.083 319.774 203.351 319.796 208.618C319.801 209.901 319.548 211.171 319.051 212.353C318.555 213.535 317.825 214.605 316.906 215.499C315.987 216.392 314.898 217.091 313.703 217.553C312.508 218.015 311.232 218.231 309.951 218.189L295.477 217.706C291.019 237.584 301.962 250.971 314.02 259.388C325.373 267.199 338.844 271.34 352.62 271.254H391.94C443.009 271.254 451.926 228.253 451.926 228.253C478.676 216.894 475.33 183.55 475.33 183.55Z" fill="#3F3D56"/>
<path d="M486.58 294.783C511.762 294.783 532.177 274.35 532.177 249.145C532.177 223.94 511.762 203.507 486.58 203.507C461.397 203.507 440.983 223.94 440.983 249.145C440.983 274.35 461.397 294.783 486.58 294.783Z" fill="#3F3D56"/>
<path d="M486.58 260.331C492.752 260.331 497.755 255.323 497.755 249.145C497.755 242.967 492.752 237.959 486.58 237.959C480.407 237.959 475.404 242.967 475.404 249.145C475.404 255.323 480.407 260.331 486.58 260.331Z" fill="#EAEAEA"/>
<path d="M256.365 294.783C285.353 294.783 308.852 271.263 308.852 242.249C308.852 213.235 285.353 189.715 256.365 189.715C227.377 189.715 203.878 213.235 203.878 242.249C203.878 271.263 227.377 294.783 256.365 294.783Z" fill="#3F3D56"/>
<path d="M256.365 255.125C263.47 255.125 269.23 249.36 269.23 242.249C269.23 235.138 263.47 229.373 256.365 229.373C249.26 229.373 243.5 235.138 243.5 242.249C243.5 249.36 249.26 255.125 256.365 255.125Z" fill="#EAEAEA"/>
<path d="M409.85 135.3L400.225 109.135C399.723 107.771 399.495 106.322 399.553 104.87C399.611 103.418 399.954 101.991 400.563 100.672C401.172 99.3528 402.034 98.1665 403.101 97.1808C404.168 96.1951 405.418 95.4294 406.78 94.9274L434.374 84.7603C436.771 83.8767 439.319 83.4744 441.871 83.5763C444.424 83.6782 446.931 84.2824 449.251 85.3542C451.57 86.4261 453.656 87.9447 455.388 89.8233C457.121 91.702 458.468 93.9038 459.35 96.3032C460.146 98.4568 460.553 100.735 460.551 103.031C460.541 105.947 459.881 108.824 458.621 111.452C457.361 114.081 455.531 116.395 453.265 118.228C451.628 119.542 449.788 120.58 447.818 121.302L409.85 135.3Z" fill="#3F3D56"/>
<path d="M460.146 103.031C460.143 105.887 459.501 108.707 458.267 111.282C457.032 113.857 455.237 116.122 453.012 117.911C449.599 117.01 446.423 115.376 443.704 113.122C440.986 110.868 438.791 108.049 437.271 104.86C435.751 101.671 434.944 98.1893 434.904 94.6565C434.865 91.1237 435.595 87.6247 437.043 84.4028C439.823 83.7976 442.704 83.8234 445.473 84.4782C448.242 85.133 450.83 86.4003 453.045 88.1869C455.261 89.9736 457.049 92.2343 458.278 94.803C459.506 97.3717 460.145 100.183 460.146 103.031Z" fill="#08D9D6"/>
<path d="M214.821 201.885C221.089 201.885 226.17 195.709 226.17 188.092C226.17 180.474 221.089 174.299 214.821 174.299C208.553 174.299 203.472 180.474 203.472 188.092C203.472 195.709 208.553 201.885 214.821 201.885Z" fill="#08D9D6"/>
<path d="M364.834 236.915H374.773L379.501 211.117L364.833 211.118L364.834 236.915Z" fill="#FFB8B8"/>
<path d="M362.299 233.668L381.871 233.667H381.871C383.509 233.667 385.131 233.99 386.644 234.617C388.158 235.244 389.533 236.164 390.691 237.323C391.849 238.482 392.768 239.858 393.395 241.373C394.021 242.888 394.344 244.511 394.344 246.15V246.556L362.3 246.557L362.299 233.668Z" fill="#2F2E41"/>
<path d="M376.37 226.327C376.254 226.327 376.138 226.321 376.021 226.31L362.268 225.308C361.711 225.256 361.175 225.077 360.698 224.785C360.222 224.493 359.819 224.095 359.521 223.622C359.223 223.15 359.037 222.615 358.977 222.059C358.918 221.503 358.988 220.941 359.18 220.416L377.586 179.026C377.718 178.657 377.771 178.265 377.744 177.874C377.717 177.483 377.609 177.102 377.427 176.755C377.246 176.404 376.992 176.095 376.683 175.849C376.375 175.603 376.017 175.425 375.635 175.327C366.979 173.063 344.773 167.033 325.55 159.978C317.314 156.956 312.127 152.587 310.133 146.995C307.504 139.623 311.393 132.899 311.56 132.617L311.69 132.396L329.779 134.042L349.389 135.711L392.362 158.776C395.963 160.725 398.698 163.96 400.023 167.836C401.348 171.713 401.165 175.947 399.51 179.695L379.698 224.163C379.412 224.807 378.945 225.354 378.354 225.738C377.763 226.122 377.074 226.326 376.37 226.327Z" fill="#2F2E41"/>
<path d="M332.924 58.1539C343.92 58.1539 352.833 49.2321 352.833 38.2265C352.833 27.221 343.92 18.2992 332.924 18.2992C321.928 18.2992 313.014 27.221 313.014 38.2265C313.014 49.2321 321.928 58.1539 332.924 58.1539Z" fill="#FFB8B8"/>
<path d="M359.16 239.349H369.098L373.827 213.551L359.158 213.552L359.16 239.349Z" fill="#FFB8B8"/>
<path d="M356.625 236.102L376.196 236.101H376.197C377.835 236.101 379.457 236.424 380.97 237.051C382.483 237.678 383.858 238.598 385.017 239.757C386.175 240.916 387.093 242.292 387.72 243.807C388.347 245.322 388.67 246.945 388.67 248.584V248.99L356.626 248.991L356.625 236.102Z" fill="#2F2E41"/>
<path d="M370.695 228.761C370.58 228.761 370.463 228.755 370.347 228.744L356.593 227.742C356.037 227.69 355.5 227.511 355.024 227.219C354.548 226.927 354.145 226.529 353.847 226.056C353.548 225.584 353.362 225.049 353.303 224.493C353.244 223.937 353.313 223.375 353.506 222.85L371.912 181.46C372.043 181.091 372.097 180.699 372.07 180.308C372.042 179.917 371.934 179.536 371.753 179.189C371.571 178.838 371.318 178.529 371.009 178.283C370.7 178.037 370.343 177.859 369.96 177.761C361.305 175.497 339.098 169.467 319.875 162.412C311.639 159.39 306.452 155.022 304.458 149.429C301.829 142.057 305.719 135.333 305.885 135.051L306.016 134.83L324.104 136.476L343.714 138.145L386.688 161.21C390.289 163.159 393.024 166.394 394.348 170.27C395.673 174.147 395.49 178.381 393.836 182.129L374.024 226.597C373.737 227.241 373.27 227.788 372.68 228.172C372.089 228.556 371.4 228.76 370.695 228.761Z" fill="#2F2E41"/>
<path d="M339.064 63.4535L317.988 56.1514C317.988 56.1514 304.757 66.3256 311.113 91.5652C314.432 104.59 313.465 118.338 308.357 130.769C307.742 132.307 307.033 133.806 306.234 135.257C306.234 135.257 329.742 163.654 351.629 142.559L343.117 101.586C343.117 101.586 356.492 74.4066 339.064 63.4535Z" fill="#FF2E63"/>
<path d="M335.396 58.8316C332.562 54.5864 330.326 48.6999 333.446 44.6608C336.525 40.6737 342.599 41.2611 347.316 39.4969C353.885 37.0396 357.695 29.3152 356.507 22.3974C355.319 15.4797 349.77 9.74505 343.161 7.39863C336.551 5.05222 329.098 5.81533 322.625 8.51737C314.658 11.8436 307.823 18.278 304.957 26.4287C302.091 34.5794 303.623 44.3658 309.568 50.6306C315.943 57.3472 325.947 59.1371 335.202 59.0285" fill="#444D5F"/>
<path d="M316.876 22.6194C313.305 25.5288 307.858 24.2366 304.025 21.6832C300.192 19.1299 297.082 15.4941 292.935 13.4922C285.624 9.96295 276.784 12.3091 269.669 16.2184C262.553 20.1277 256.245 25.5285 248.729 28.5963C241.213 31.6641 231.622 31.8158 225.931 26.0231C224.53 30.0845 224.416 34.4795 225.603 38.6085C226.79 42.7374 229.221 46.3992 232.565 49.0942C235.908 51.7892 240 53.3862 244.284 53.6673C248.567 53.9483 252.833 52.8997 256.499 50.6646C264.735 45.6437 269.284 35.1164 278.52 32.3451C283.632 30.8116 289.12 32.0467 294.286 33.3845C299.452 34.7223 304.839 36.1677 310.052 35.0289C315.265 33.89 320.142 29.2009 319.479 23.9016L316.876 22.6194Z" fill="#444D5F"/>
<path d="M429.657 101.654C429.133 100.492 428.361 99.4601 427.396 98.6296C426.43 97.7992 425.294 97.1908 424.069 96.8472C422.843 96.5036 421.556 96.4333 420.3 96.6411C419.044 96.8489 417.849 97.3298 416.799 98.05L339.41 80.6653L338.448 99.5954L414.821 110.731C416.147 112.417 418.044 113.558 420.154 113.937C422.264 114.316 424.439 113.907 426.268 112.788C428.096 111.669 429.452 109.918 430.076 107.865C430.701 105.813 430.552 103.603 429.657 101.654Z" fill="#FFB8B8"/>
<path d="M352.979 82.4043L348.255 101.568C348.121 102.113 347.87 102.623 347.521 103.063C347.172 103.502 346.733 103.862 346.233 104.116C345.732 104.37 345.183 104.514 344.622 104.537C344.062 104.559 343.503 104.461 342.984 104.248L324.791 96.7858C322.006 96.0832 319.614 94.3035 318.138 91.8373C316.663 89.3711 316.225 86.4197 316.921 83.6308C317.617 80.842 319.39 78.4434 321.851 76.9614C324.312 75.4794 327.26 75.035 330.048 75.7258L349.557 77.5777C350.116 77.6309 350.657 77.804 351.142 78.0851C351.628 78.3663 352.047 78.7489 352.372 79.207C352.697 79.665 352.919 80.1877 353.024 80.7395C353.128 81.2912 353.113 81.859 352.979 82.4043V82.4043Z" fill="#FF2E63"/>
<path d="M420.717 116.694C423.851 116.694 426.392 114.151 426.392 111.015C426.392 107.878 423.851 105.335 420.717 105.335C417.583 105.335 415.043 107.878 415.043 111.015C415.043 114.151 417.583 116.694 420.717 116.694Z" fill="#FF2E63"/>
<path d="M672 295.189C671.999 295.404 671.914 295.61 671.762 295.762C671.61 295.914 671.404 295.999 671.189 296H0.810615C0.595627 296 0.389443 295.914 0.237423 295.762C0.0854032 295.61 0 295.404 0 295.189C0 294.973 0.0854032 294.767 0.237423 294.615C0.389443 294.463 0.595627 294.377 0.810615 294.377H671.189C671.404 294.378 671.61 294.464 671.762 294.616C671.914 294.768 671.999 294.974 672 295.189Z" fill="#3F3D56"/>
</g>
<defs>
<clipPath id="clip0_302_146">
<rect width="672" height="296" fill="white"/>
</clipPath>
</defs>
</svg>
